<svg xmlns="http://www.w3.org/2000/svg" xmlns:xlink="http://www.w3.org/1999/xlink" viewBox="0,0,256,256" width="64px" height="64px"><defs><linearGradient x1="32" y1="6" x2="32" y2="54" gradientUnits="userSpaceOnUse" id="color-1"><stop offset="0" stop-color="#000000"></stop><stop offset="1" stop-color="#443f7b"></stop></linearGradient><linearGradient x1="32" y1="5" x2="32" y2="55.001" gradientUnits="userSpaceOnUse" id="color-2"><stop offset="0" stop-color="#69809e"></stop><stop offset="1" stop-color="#443f7b"></stop></linearGradient></defs><g fill="none" fill-rule="nonzero" stroke="none" stroke-width="none" stroke-linecap="butt" stroke-linejoin="none" stroke-miterlimit="10" stroke-dasharray="" stroke-dashoffset="0" font-family="none" font-weight="none" font-size="none" text-anchor="none" style="mix-blend-mode: normal"><path transform="scale(4,4)" d="M51,55c-0.199,0 -0.398,-0.059 -0.573,-0.181c-0.434,-0.303 -0.556,-0.893 -0.278,-1.343l0.914,-1.486l0.338,-1.465c0.017,-0.072 0.042,-0.143 0.074,-0.209c0.018,-0.038 1.702,-3.61 1.884,-9.315h-2.359c-0.379,0 -0.725,-0.214 -0.895,-0.553l-0.251,-0.502l-4.945,-0.449c-0.496,-0.045 -0.883,-0.448 -0.908,-0.945c-0.025,-0.498 0.319,-0.938 0.808,-1.032l4.333,-0.843l1.354,-0.79c0.105,-0.061 0.22,-0.103 0.339,-0.123l1.978,-0.33c-1.083,-4.877 -3.142,-8.248 -3.164,-8.283c-0.222,-0.36 -0.194,-0.82 0.07,-1.15l0.027,-0.035l-0.22,-0.309l-1.558,1.148c-0.275,0.204 -0.634,0.251 -0.953,0.128l-0.411,-0.158l-4.001,3.023c-0.383,0.288 -0.915,0.267 -1.271,-0.054c-0.356,-0.32 -0.436,-0.848 -0.189,-1.258l2.37,-3.95l-0.066,-0.164c-0.135,-0.337 -0.076,-0.721 0.153,-1.002l0.948,-1.167c-0.47,-0.385 -0.944,-0.858 -1.432,-1.428c-0.154,-0.181 -0.347,-0.374 -0.505,-0.525h-0.611c-0.149,0 -0.297,-0.034 -0.432,-0.098c-2.803,-1.341 -5.421,-1.948 -6.232,-2.116l-0.184,0.069l-1.163,7.793c-0.042,0.279 -0.2,0.528 -0.435,0.685l-0.375,0.25c-0.291,0.193 -0.662,0.222 -0.977,0.074c-0.316,-0.147 -0.533,-0.449 -0.571,-0.796l-0.331,-2.975l-0.441,-0.368c-0.201,-0.167 -0.329,-0.408 -0.355,-0.668l-0.411,-4.109c-1.525,0.041 -4.916,0.377 -8.202,2.365c-0.239,0.146 -0.518,0.179 -0.772,0.112c-0.026,0.284 -0.174,0.553 -0.422,0.727c-0.467,0.327 -0.861,0.637 -1.166,0.89l1.217,1.379c0.161,0.183 0.25,0.418 0.25,0.662v0.542l2.8,3.733c0.287,0.383 0.263,0.915 -0.057,1.27c-0.32,0.354 -0.846,0.435 -1.257,0.188l-4.761,-2.859h-0.348c-0.231,0 -0.455,-0.08 -0.634,-0.226l-1.332,-1.091c-0.303,0.525 -0.728,1.262 -1.282,2.229c-0.077,0.135 -0.185,0.25 -0.315,0.336l-0.545,0.361c-1.111,2.077 -1.999,4.352 -2.646,6.779l0.996,0.117c0.125,0.015 0.247,0.053 0.357,0.113l1.507,0.811l4.744,1.095c0.476,0.11 0.803,0.547 0.773,1.035c-0.029,0.487 -0.407,0.882 -0.892,0.934l-5.695,0.607l-1.088,0.544c-0.093,0.046 -0.192,0.078 -0.295,0.094l-0.78,0.12c0.026,1.664 0.25,5.562 1.672,8.872c0.052,0.125 0.08,0.259 0.08,0.395v0.8l1.809,2.487c0.295,0.406 0.244,0.968 -0.12,1.313c-0.363,0.346 -0.928,0.369 -1.318,0.052l-2.625,-2.125c-0.092,-0.075 -0.17,-0.165 -0.23,-0.267l-2.293,-3.863l-0.88,-0.77c-0.163,-0.143 -0.275,-0.334 -0.32,-0.546l-1,-4.75c-0.016,-0.068 -0.023,-0.137 -0.023,-0.206v-1.25h-4c-0.372,0 -0.713,-0.207 -0.886,-0.536c-0.173,-0.329 -0.148,-0.727 0.063,-1.033l0.31,-0.447c-0.296,-0.177 -0.487,-0.5 -0.487,-0.859v-3.125c0,-0.283 0.12,-0.553 0.33,-0.742c0.209,-0.19 0.485,-0.282 0.772,-0.252l3.909,0.401c0.331,-2.383 0.63,-3.592 0.644,-3.649c0.063,-0.254 0.225,-0.474 0.448,-0.61l0.657,-0.401c0.267,-0.616 0.538,-1.246 0.762,-1.772c-0.237,-0.055 -0.448,-0.196 -0.591,-0.4c-0.188,-0.267 -0.232,-0.609 -0.121,-0.916c0.022,-0.061 0.559,-1.515 2.108,-3.838c0.394,-0.591 0.837,-1.135 1.194,-1.543l-0.819,-0.82c-0.188,-0.188 -0.293,-0.443 -0.293,-0.708v-0.875c0,-0.164 0.041,-0.326 0.118,-0.471l0.882,-1.654v-1.75c0,-0.552 0.448,-1 1,-1h1c0.265,0 0.52,0.105 0.707,0.293l2.106,2.106c0.874,-0.688 2.471,-1.832 4.507,-2.802c2.235,-1.064 4.444,-1.522 5.236,-1.663l0.785,-0.687c0.183,-0.159 0.417,-0.247 0.659,-0.247h3.431l-0.426,-4.531c-0.03,-0.316 0.092,-0.627 0.329,-0.839c0.236,-0.212 0.559,-0.3 0.871,-0.233l1.821,0.379c0.101,-0.445 0.499,-0.776 0.974,-0.776h1c0.529,0 0.962,0.411 0.998,0.931l0.354,0.132c0.414,0.155 0.677,0.563 0.646,1.004l-0.27,3.956c0.833,0.075 3.215,0.384 5.704,1.574c0.278,0.133 0.475,0.384 0.542,0.676l0.022,-0.013c0.26,-0.151 0.575,-0.178 0.855,-0.073c0.087,0.033 2.143,0.809 3.488,1.787c0.302,0.219 1.1,0.763 1.997,1.083c0.487,0.174 0.757,0.688 0.634,1.182l2.947,-2.947c0.188,-0.187 0.443,-0.292 0.708,-0.292h0.375c0.552,0 1,0.448 1,1v1.667l1,1.333c0.552,0 1,0.448 1,1v1c0,0.301 -0.136,0.586 -0.37,0.776l-1.285,1.044c0.623,0.925 1.681,2.54 2.529,4.068c0.229,0.412 0.139,0.927 -0.215,1.238l-0.41,0.359l0.148,0.286l0.431,-0.021c0.486,-0.012 0.931,0.318 1.027,0.803c0.032,0.158 0.679,3.411 0.933,5.85l3.987,-0.399c0.542,-0.057 1.025,0.333 1.092,0.871l0.125,1c0.048,0.386 -0.132,0.766 -0.462,0.972l-0.319,0.199c0.325,0.504 0.789,1.269 0.789,2.954c0,0.552 -0.448,1 -1,1h-4.23l-0.151,1.36c-0.005,0.048 -0.014,0.095 -0.026,0.142c-0.035,0.134 -0.864,3.31 -1.669,5.254c-0.037,0.09 -0.087,0.174 -0.148,0.25l-1.352,1.658l-1.122,1.971c-0.054,0.095 -0.123,0.18 -0.205,0.253l-0.515,0.457l-1.798,2.276c-0.196,0.248 -0.489,0.379 -0.784,0.379z" id="strokeMainSVG" fill="#ffffff" stroke="#ffffff" stroke-width="2" stroke-linejoin="round"></path><g transform="scale(4,4)" stroke="none" stroke-width="1" stroke-linejoin="miter"><path d="M2.125,38.375l-1.125,-0.25v-3.125l4.875,0.5c0.375,-3 0.75,-4.5 0.75,-4.5l0.926,-0.566c0,0 1.44,-3.307 1.449,-3.434h-1c0,0 1.021,-1.986 2.138,-3.708c0.751,-1.158 1.362,-2.042 1.362,-2.042l-1.625,-1.375v-0.875l1.125,-2v-2h1l2.75,2.75c0,0 2.018,-1.83 5,-3.25c2.625,-1.25 5.25,-1.625 5.25,-1.625l1,-0.875h4.529l-0.529,-5.625l3,0.625v-1h1v0.625l1,0.375l-0.375,5.5l0.75,-0.5c0,0 2.75,0.125 5.625,1.5v1.5l1.5,-0.875c0,0 2,0.75 3.252,1.659c0.482,0.35 1.329,0.888 2.248,1.216c-0.175,0.536 -0.25,0.625 -0.25,0.625c0.205,0.117 1.25,1 1.25,1l3.625,-3.625h0.375v2l1.5,2h0.5v1l-2,1.625c0,0 1.75,2.498 3,4.749l-1,0.876l0.805,1.55l1.07,-0.05c0,0 0.875,4.375 1,6.75l5,-0.5l0.125,1l-1,0.625c0,1 1,1 1,3.375h-5.125l-0.25,2.25c0,0 -0.838,3.221 -1.625,5.123l-1.404,1.723l-1.163,2.043l-0.58,0.516c0,0 -1.816,2.367 -1.852,2.345l1,-1.625l0.375,-1.625c0,0 1.75,-4.125 1.75,-10.75h-3.126l-0.5,-1l-5.5,-0.5l4.5,-0.875l1.5,-0.875l3,-0.5c-1.047,-5.656 -3.5,-9.625 -3.5,-9.625l0.5,-0.625l-1.25,-1.75l-2.375,1.75l-0.93,-0.358l-4.445,3.358l2.625,-4.375l-0.25,-0.625l1.625,-2c-0.875,-0.5 -1.615,-1.279 -2.125,-1.875c-0.374,-0.437 -0.875,-0.875 -0.875,-0.875h-1c-3.541,-1.694 -6.75,-2.25 -6.75,-2.25l-1,0.375l-1.25,8.375l-0.375,0.25l-0.375,-3.375l-0.75,-0.625l-0.5,-5c0,0 -4.875,-0.375 -9.625,2.5l-0.375,-0.5l-1.194,0.736l0.319,0.639c-1.25,0.875 -2,1.625 -2,1.625l1.875,2.125v0.875l3,4l-5,-3h-0.625l-2.24,-1.835c0,0 -0.591,1.008 -1.875,3.25l-1.003,0.5c-1.097,2.008 -2.055,4.791 -2.881,8.335l2.124,0.25l1.625,0.875l4.875,1.125l-5.875,0.625l-1.25,0.625l-1.625,0.25c0,0 -0.221,5.536 1.75,10.125v1.125l2,2.75l-2.625,-2.125l-2.375,-4l-1,-0.875l-1,-4.75l-0.125,-2.25h-4.875z" fill="url(#color-1)"></path><path d="M51,55c-0.199,0 -0.398,-0.059 -0.573,-0.181c-0.434,-0.303 -0.556,-0.893 -0.278,-1.343l0.914,-1.486l0.338,-1.465c0.017,-0.072 0.042,-0.143 0.074,-0.209c0.018,-0.038 1.702,-3.61 1.884,-9.315h-2.359c-0.379,0 -0.725,-0.214 -0.895,-0.553l-0.251,-0.502l-4.945,-0.449c-0.496,-0.045 -0.883,-0.448 -0.908,-0.945c-0.025,-0.498 0.319,-0.938 0.808,-1.032l4.333,-0.843l1.354,-0.79c0.105,-0.061 0.22,-0.103 0.339,-0.123l1.978,-0.33c-1.083,-4.877 -3.142,-8.248 -3.164,-8.283c-0.222,-0.36 -0.194,-0.82 0.07,-1.15l0.027,-0.035l-0.22,-0.309l-1.558,1.148c-0.275,0.204 -0.634,0.251 -0.953,0.128l-0.411,-0.158l-4.001,3.023c-0.383,0.288 -0.915,0.267 -1.271,-0.054c-0.356,-0.32 -0.436,-0.848 -0.189,-1.258l2.37,-3.95l-0.066,-0.164c-0.135,-0.337 -0.076,-0.721 0.153,-1.002l0.948,-1.167c-0.47,-0.385 -0.944,-0.858 -1.432,-1.428c-0.154,-0.181 -0.347,-0.374 -0.505,-0.525h-0.611c-0.149,0 -0.297,-0.034 -0.432,-0.098c-2.803,-1.341 -5.421,-1.948 -6.232,-2.116l-0.184,0.069l-1.163,7.793c-0.042,0.279 -0.2,0.528 -0.435,0.685l-0.375,0.25c-0.291,0.193 -0.662,0.222 -0.977,0.074c-0.316,-0.147 -0.533,-0.449 -0.571,-0.796l-0.331,-2.975l-0.441,-0.368c-0.201,-0.167 -0.329,-0.408 -0.355,-0.668l-0.411,-4.109c-1.525,0.041 -4.916,0.377 -8.202,2.365c-0.239,0.146 -0.518,0.179 -0.772,0.112c-0.026,0.284 -0.174,0.553 -0.422,0.727c-0.467,0.327 -0.861,0.637 -1.166,0.89l1.217,1.379c0.161,0.183 0.25,0.418 0.25,0.662v0.542l2.8,3.733c0.287,0.383 0.263,0.915 -0.057,1.27c-0.32,0.354 -0.846,0.435 -1.257,0.188l-4.761,-2.859h-0.348c-0.231,0 -0.455,-0.08 -0.634,-0.226l-1.332,-1.091c-0.303,0.525 -0.728,1.262 -1.282,2.229c-0.077,0.135 -0.185,0.25 -0.315,0.336l-0.545,0.361c-1.111,2.077 -1.999,4.352 -2.646,6.779l0.996,0.117c0.125,0.015 0.247,0.053 0.357,0.113l1.507,0.811l4.744,1.095c0.476,0.11 0.803,0.547 0.773,1.035c-0.029,0.487 -0.407,0.882 -0.892,0.934l-5.695,0.607l-1.088,0.544c-0.093,0.046 -0.192,0.078 -0.295,0.094l-0.78,0.12c0.026,1.664 0.25,5.562 1.672,8.872c0.052,0.125 0.08,0.259 0.08,0.395v0.8l1.809,2.487c0.295,0.406 0.244,0.968 -0.12,1.313c-0.363,0.346 -0.928,0.369 -1.318,0.052l-2.625,-2.125c-0.092,-0.075 -0.17,-0.165 -0.23,-0.267l-2.293,-3.863l-0.88,-0.77c-0.163,-0.143 -0.275,-0.334 -0.32,-0.546l-1,-4.75c-0.016,-0.068 -0.023,-0.137 -0.023,-0.206v-1.25h-4c-0.372,0 -0.713,-0.207 -0.886,-0.536c-0.173,-0.329 -0.148,-0.727 0.063,-1.033l0.31,-0.447c-0.296,-0.177 -0.487,-0.5 -0.487,-0.859v-3.125c0,-0.283 0.12,-0.553 0.33,-0.742c0.209,-0.19 0.485,-0.282 0.772,-0.252l3.909,0.401c0.331,-2.383 0.63,-3.592 0.644,-3.649c0.063,-0.254 0.225,-0.474 0.448,-0.61l0.657,-0.401c0.267,-0.616 0.538,-1.246 0.762,-1.772c-0.237,-0.055 -0.448,-0.196 -0.591,-0.4c-0.188,-0.267 -0.232,-0.609 -0.121,-0.916c0.022,-0.061 0.559,-1.515 2.108,-3.838c0.394,-0.591 0.837,-1.135 1.194,-1.543l-0.819,-0.82c-0.188,-0.188 -0.293,-0.443 -0.293,-0.708v-0.875c0,-0.164 0.041,-0.326 0.118,-0.471l0.882,-1.654v-1.75c0,-0.552 0.448,-1 1,-1h1c0.265,0 0.52,0.105 0.707,0.293l2.106,2.106c0.874,-0.688 2.471,-1.832 4.507,-2.802c2.235,-1.064 4.444,-1.522 5.236,-1.663l0.785,-0.687c0.183,-0.159 0.417,-0.247 0.659,-0.247h3.431l-0.426,-4.531c-0.03,-0.316 0.092,-0.627 0.329,-0.839c0.236,-0.212 0.559,-0.3 0.871,-0.233l1.821,0.379c0.101,-0.445 0.499,-0.776 0.974,-0.776h1c0.529,0 0.962,0.411 0.998,0.931l0.354,0.132c0.414,0.155 0.677,0.563 0.646,1.004l-0.27,3.956c0.833,0.075 3.215,0.384 5.704,1.574c0.278,0.133 0.475,0.384 0.542,0.676l0.022,-0.013c0.26,-0.151 0.575,-0.178 0.855,-0.073c0.087,0.033 2.143,0.809 3.488,1.787c0.302,0.219 1.1,0.763 1.997,1.083c0.487,0.174 0.757,0.688 0.634,1.182l2.947,-2.947c0.188,-0.187 0.443,-0.292 0.708,-0.292h0.375c0.552,0 1,0.448 1,1v1.667l1,1.333c0.552,0 1,0.448 1,1v1c0,0.301 -0.136,0.586 -0.37,0.776l-1.285,1.044c0.623,0.925 1.681,2.54 2.529,4.068c0.229,0.412 0.139,0.927 -0.215,1.238l-0.41,0.359l0.148,0.286l0.431,-0.021c0.486,-0.012 0.931,0.318 1.027,0.803c0.032,0.158 0.679,3.411 0.933,5.85l3.987,-0.399c0.542,-0.057 1.025,0.333 1.092,0.871l0.125,1c0.048,0.386 -0.132,0.766 -0.462,0.972l-0.319,0.199c0.325,0.504 0.789,1.269 0.789,2.954c0,0.552 -0.448,1 -1,1h-4.23l-0.151,1.36c-0.005,0.048 -0.014,0.095 -0.026,0.142c-0.035,0.134 -0.864,3.31 -1.669,5.254c-0.037,0.09 -0.087,0.174 -0.148,0.25l-1.352,1.658l-1.122,1.971c-0.054,0.095 -0.123,0.18 -0.205,0.253l-0.515,0.457l-1.798,2.276c-0.196,0.248 -0.489,0.379 -0.784,0.379zM7.91,46.467l0.749,0.655c0.079,0.069 0.147,0.151 0.201,0.242l0.323,0.544c-1.074,-3.971 -0.94,-7.756 -0.932,-7.949c0.019,-0.478 0.374,-0.875 0.847,-0.948l1.47,-0.226l1.11,-0.555c0.107,-0.053 0.223,-0.087 0.341,-0.1l0.334,-0.035l-1.159,-0.625l-1.936,-0.228c-0.283,-0.033 -0.538,-0.186 -0.702,-0.418c-0.164,-0.232 -0.22,-0.524 -0.156,-0.802c0.723,-3.1 1.809,-5.989 3.228,-8.587c0.078,-0.143 0.189,-0.264 0.325,-0.354l0.556,-0.369c1.206,-2.104 1.762,-3.053 1.762,-3.053c0.148,-0.252 0.399,-0.427 0.687,-0.479c0.287,-0.051 0.583,0.025 0.81,0.21l1.964,1.61h0.268c0.181,0 0.359,0.049 0.515,0.143l0.632,0.379c-0.096,-0.157 -0.147,-0.337 -0.147,-0.522v-0.497l-1.625,-1.841c-0.349,-0.396 -0.331,-0.995 0.043,-1.369c0.027,-0.027 0.551,-0.548 1.442,-1.231c-0.151,-0.437 0.018,-0.929 0.42,-1.177l1.194,-0.736c0.362,-0.224 0.816,-0.19 1.14,0.062c4.71,-2.54 9.259,-2.226 9.461,-2.208c0.483,0.037 0.87,0.416 0.918,0.897l0.459,4.593l0.151,0.126l0.655,-4.392c0.054,-0.359 0.298,-0.661 0.638,-0.789l1,-0.375c0.167,-0.062 0.347,-0.08 0.521,-0.049c0.134,0.023 3.264,0.577 6.804,2.235h0.779c0.242,0 0.476,0.088 0.658,0.247c0.022,0.02 0.56,0.491 0.977,0.978c0.669,0.782 1.278,1.324 1.861,1.657c0.255,0.146 0.433,0.396 0.487,0.685c0.054,0.289 -0.021,0.586 -0.207,0.814l-1.254,1.544l0.032,0.079c0.11,0.275 0.092,0.584 -0.047,0.844l0.336,-0.254c0.275,-0.208 0.64,-0.259 0.963,-0.135l0.418,0.161l1.934,-1.425c0.215,-0.159 0.485,-0.224 0.75,-0.183c0.264,0.042 0.501,0.188 0.657,0.407l1.25,1.75c0.26,0.364 0.247,0.856 -0.033,1.206l-0.075,0.094c0.74,1.356 2.438,4.813 3.278,9.349c0.049,0.264 -0.011,0.536 -0.165,0.756c-0.154,0.22 -0.39,0.369 -0.654,0.413l-2.819,0.47l-0.57,0.333c0.267,0.077 0.493,0.261 0.619,0.514l0.222,0.447h2.757c0.552,0 1,0.448 1,1c0,3.169 -0.441,5.783 -0.918,7.685l0.674,-0.827c0.674,-1.678 1.388,-4.333 1.509,-4.791l0.242,-2.177c0.056,-0.506 0.484,-0.89 0.994,-0.89h4.034c-0.095,-0.431 -0.252,-0.673 -0.405,-0.909c-0.226,-0.346 -0.505,-0.777 -0.505,-1.466c0,-0.156 0.037,-0.307 0.104,-0.443l-3.129,0.313c-0.271,0.03 -0.543,-0.058 -0.751,-0.236c-0.208,-0.178 -0.333,-0.433 -0.347,-0.706c-0.087,-1.659 -0.565,-4.39 -0.821,-5.763l-0.204,0.01c-0.388,0.019 -0.754,-0.192 -0.935,-0.538l-0.805,-1.551c-0.212,-0.409 -0.118,-0.909 0.229,-1.213l0.385,-0.337c-1.155,-1.973 -2.53,-3.939 -2.545,-3.961c-0.301,-0.43 -0.219,-1.019 0.188,-1.35l1.415,-1.15c-0.03,-0.031 -0.059,-0.063 -0.084,-0.099l-1.5,-2c-0.122,-0.163 -0.191,-0.359 -0.199,-0.562l-2.294,2.293c-0.367,0.368 -0.955,0.393 -1.353,0.057c-0.439,-0.371 -0.995,-0.825 -1.123,-0.909c-0.238,-0.157 -0.414,-0.417 -0.456,-0.7c-0.011,-0.073 -0.014,-0.147 -0.01,-0.221c-0.74,-0.364 -1.333,-0.771 -1.602,-0.966c-0.793,-0.576 -1.958,-1.098 -2.583,-1.358l-1.078,0.629c-0.31,0.181 -0.691,0.181 -1.002,0.003c-0.309,-0.178 -0.5,-0.509 -0.5,-0.867v-0.854c-1.897,-0.802 -3.664,-1.05 -4.36,-1.122l-0.46,0.307c-0.317,0.211 -0.728,0.224 -1.056,0.033c-0.33,-0.191 -0.522,-0.553 -0.496,-0.933l0.324,-4.757l-0.162,-0.06c-0.046,0.06 -0.099,0.114 -0.159,0.162c-0.233,0.19 -0.54,0.264 -0.835,0.203l-1.673,-0.349l0.402,4.276c0.026,0.28 -0.066,0.559 -0.256,0.767c-0.19,0.208 -0.458,0.327 -0.74,0.327h-4.153l-0.717,0.627c-0.146,0.127 -0.325,0.21 -0.517,0.237c-0.025,0.004 -2.516,0.374 -4.962,1.538c-2.801,1.334 -4.739,3.071 -4.759,3.089c-0.395,0.357 -1.002,0.343 -1.378,-0.035l-2.043,-2.042v0.586c0,0.164 -0.041,0.326 -0.118,0.471l-0.882,1.654v0.211l1.207,1.207c0.188,0.188 0.293,0.443 0.293,0.709c0,0.266 -0.107,0.521 -0.295,0.708c-0.009,0.009 -0.925,0.924 -1.623,1.97c-0.564,0.846 -0.98,1.563 -1.276,2.118c0.162,0.052 0.31,0.145 0.428,0.273c0.189,0.204 0.285,0.479 0.263,0.756c-0.016,0.202 -0.023,0.294 -1.529,3.755c-0.082,0.188 -0.22,0.347 -0.395,0.454l-0.564,0.345c-0.13,0.614 -0.386,1.952 -0.641,3.992c-0.067,0.54 -0.552,0.933 -1.094,0.871l-3.774,-0.386v1.215l0.342,0.076c0.325,0.072 0.593,0.301 0.714,0.611c0.121,0.31 0.081,0.66 -0.109,0.934l-0.038,0.056h3.091c0.552,0 1,0.448 1,1v2.146z" fill="url(#color-2)"></path></g></g></svg>
